<svg width="17" height="17" viewBox="0 0 17 17" fill="none" xmlns="http://www.w3.org/2000/svg">
<g clip-path="url(#clip0_3_118)">
<path d="M10.1668 12.2067H10.1725M10.1668 7.95668V10.0817M9.15745 4.56873L4.15804 12.915C4.05503 13.0935 4.00055 13.2959 4 13.502C3.99946 13.7081 4.05288 13.9108 4.15495 14.0899C4.25701 14.2689 4.40417 14.4182 4.58179 14.5227C4.75942 14.6273 4.96131 14.6835 5.16741 14.6858H15.1662C15.3724 14.6837 15.5745 14.6276 15.7522 14.5231C15.9299 14.4186 16.0772 14.2693 16.1793 14.0902C16.2814 13.9111 16.3348 13.7083 16.3342 13.5021C16.3335 13.2959 16.2788 13.0935 16.1756 12.915L11.1769 4.56873C11.0718 4.39513 10.9236 4.25159 10.7468 4.15197C10.57 4.05234 10.3705 4 10.1675 4C9.96459 4 9.76507 4.05234 9.58825 4.15197C9.41144 4.25159 9.2633 4.39513 9.15816 4.56873" stroke="white" stroke-width="1.5" stroke-miterlimit="10" stroke-linecap="round" stroke-linejoin="round"/>
</g>
<defs>
<clipPath id="clip0_3_118">
<rect width="17" height="17" fill="white"/>
</clipPath>
</defs>
</svg>
