<svg width="14" height="12" viewBox="0 0 14 12" fill="none" xmlns="http://www.w3.org/2000/svg">
<path d="M13.5615 5.56812C13.5615 5.8802 13.3296 6.13811 13.0287 6.17893L12.9451 6.18455L7.63401 6.18431C5.59887 6.18422 4.58176 8.64671 6.02376 10.0828C6.26501 10.323 6.26585 10.7133 6.02564 10.9546C5.80726 11.1739 5.46485 11.1945 5.22314 11.016L5.15387 10.9565L0.181309 6.00527C0.149508 5.97361 0.121887 5.93934 0.0984449 5.90315C0.0918236 5.89226 0.085084 5.88111 0.0786943 5.86975C0.0728168 5.86 0.0675058 5.84988 0.0624952 5.83965C0.0555363 5.82477 0.0487366 5.80939 0.0425644 5.7937C0.0375481 5.7816 0.0333595 5.76984 0.0295401 5.75798C0.0249977 5.74327 0.0205851 5.7276 0.0167894 5.71168C0.0139685 5.70058 0.0117331 5.68988 0.00978374 5.67915C0.00704288 5.66318 0.00470924 5.64665 0.00304413 5.62993C0.00160694 5.61717 0.000741959 5.60454 0.000263214 5.59189C0.00014019 5.58422 -1.52588e-05 5.57619 -1.52588e-05 5.56812L0.000293732 5.54424C0.0007658 5.53214 0.00159168 5.52006 0.00277328 5.508L-1.52588e-05 5.56812C-1.52588e-05 5.52922 0.00358772 5.49116 0.010478 5.45426C0.0120764 5.44545 0.0139809 5.4364 0.0160894 5.42739C0.0204678 5.40883 0.025528 5.39096 0.0313549 5.37344C0.034215 5.36474 0.0375471 5.35544 0.0411072 5.34621C0.0483112 5.32766 0.0561409 5.30998 0.0647545 5.29276C0.0687561 5.28466 0.0732374 5.27618 0.0779305 5.26779C0.0856342 5.2541 0.0935698 5.24109 0.101961 5.2284C0.107882 5.21943 0.114438 5.21008 0.121284 5.20089L0.126619 5.19378C0.143228 5.17209 0.161244 5.15153 0.180533 5.13224L0.181273 5.13166L5.15384 0.179648C5.39507 -0.0605857 5.78537 -0.0597776 6.0256 0.181453C6.244 0.400753 6.26318 0.743254 6.08363 0.984205L6.0238 1.05322C4.58214 2.48928 5.5991 4.95135 7.63396 4.95145L12.9451 4.95169C13.2855 4.95169 13.5615 5.22767 13.5615 5.56812Z" fill="black"/>
</svg>
