<svg width="13" height="16" viewBox="0 0 13 16" fill="none" xmlns="http://www.w3.org/2000/svg">
<path fill-rule="evenodd" clip-rule="evenodd" d="M7.82588 10.8881C6.71683 10.7296 5.59089 10.7296 4.48183 10.8881L3.70698 10.9987C2.4627 11.1765 1.53846 12.37 1.53846 13.6269C1.53846 13.748 1.63662 13.8462 1.75771 13.8462H10.55C10.6711 13.8462 10.7692 13.748 10.7692 13.6269C10.7692 12.37 9.84501 11.1765 8.60073 10.9987L7.82588 10.8881ZM4.26426 9.36506C5.51763 9.18601 6.79008 9.18601 8.04345 9.36506L8.8183 9.47575C10.8205 9.76178 12.3077 11.6044 12.3077 13.6269C12.3077 14.5977 11.5207 15.3846 10.55 15.3846H1.75771C0.786953 15.3846 0 14.5977 0 13.6269C0 11.6044 1.48721 9.76178 3.48941 9.47575L4.26426 9.36506Z" fill="#26344F"/>
<path fill-rule="evenodd" clip-rule="evenodd" d="M6.15386 6.15385C7.42836 6.15385 8.46155 5.12066 8.46155 3.84615C8.46155 2.57165 7.42836 1.53846 6.15386 1.53846C4.87935 1.53846 3.84616 2.57165 3.84616 3.84615C3.84616 5.12066 4.87935 6.15385 6.15386 6.15385ZM6.15386 7.69231C8.27803 7.69231 10 5.97033 10 3.84615C10 1.72198 8.27803 0 6.15386 0C4.02968 0 2.3077 1.72198 2.3077 3.84615C2.3077 5.97033 4.02968 7.69231 6.15386 7.69231Z" fill="#26344F"/>
</svg>
