<svg width="8" height="9" viewBox="0 0 8 9" fill="none" xmlns="http://www.w3.org/2000/svg">
<path d="M2 6.25H5.5M2 4.65H3.75M4.1875 0.45V0.65C4.1875 1.7812 4.1875 2.3472 4.57206 2.6984C4.95619 3.05 5.57525 3.05 6.8125 3.05H7.03125M7.25 3.7128V5.05C7.25 6.5584 7.25 7.3128 6.73725 7.7812C6.2245 8.2496 5.39981 8.25 3.75 8.25C2.10019 8.25 1.27506 8.25 0.76275 7.7812C0.250437 7.3124 0.25 6.5584 0.25 5.05V3.2324C0.25 1.9344 0.25 1.2852 0.637625 0.8456C0.715911 0.756835 0.804351 0.675975 0.901437 0.6044C1.38312 0.25 2.09231 0.25 3.512 0.25C3.82044 0.25 3.97487 0.25 4.11619 0.2956C4.14535 0.3052 4.17408 0.316133 4.20238 0.3284C4.338 0.3876 4.44694 0.4872 4.66525 0.6868L6.73725 2.5812C6.99056 2.8124 7.11656 2.9284 7.1835 3.0752C7.25 3.2224 7.25 3.3856 7.25 3.7128Z" stroke="#26344F" stroke-width="0.5" stroke-linecap="round" stroke-linejoin="round"/>
</svg>
