<svg width="20" height="20" viewBox="0 0 20 20" fill="none" xmlns="http://www.w3.org/2000/svg">
<path d="M1.66699 15.8332C1.66699 17.2498 2.75033 18.3332 4.16699 18.3332H15.8337C17.2503 18.3332 18.3337 17.2498 18.3337 15.8332V9.1665H1.66699V15.8332ZM15.8337 3.33317H14.167V2.49984C14.167 1.99984 13.8337 1.6665 13.3337 1.6665C12.8337 1.6665 12.5003 1.99984 12.5003 2.49984V3.33317H7.50033V2.49984C7.50033 1.99984 7.16699 1.6665 6.66699 1.6665C6.16699 1.6665 5.83366 1.99984 5.83366 2.49984V3.33317H4.16699C2.75033 3.33317 1.66699 4.4165 1.66699 5.83317V7.49984H18.3337V5.83317C18.3337 4.4165 17.2503 3.33317 15.8337 3.33317Z" fill="#FF805D"/>
</svg>
