<svg width="14" height="14" viewBox="0 0 14 14" fill="none" xmlns="http://www.w3.org/2000/svg">
<path d="M6.623 0C8.37953 0 10.0641 0.697778 11.3062 1.93983C12.5482 3.18189 13.246 4.86647 13.246 6.623C13.246 8.37953 12.5482 10.0641 11.3062 11.3062C10.0641 12.5482 8.37953 13.246 6.623 13.246C4.86647 13.246 3.18189 12.5482 1.93983 11.3062C0.697778 10.0641 0 8.37953 0 6.623C0 4.86647 0.697778 3.18189 1.93983 1.93983C3.18189 0.697778 4.86647 0 6.623 0ZM6.623 0.95C5.86404 0.927463 5.10827 1.05749 4.40048 1.33237C3.69269 1.60725 3.04727 2.02139 2.50245 2.55027C1.95764 3.07914 1.52452 3.71199 1.22875 4.41131C0.932983 5.11063 0.780585 5.8622 0.780585 6.6215C0.780585 7.3808 0.932983 8.13237 1.22875 8.83169C1.52452 9.53101 1.95764 10.1639 2.50245 10.6927C3.04727 11.2216 3.69269 11.6358 4.40048 11.9106C5.10827 12.1855 5.86404 12.3155 6.623 12.293C8.10485 12.2587 9.51443 11.6458 10.5502 10.5855C11.586 9.52527 12.1658 8.10177 12.1655 6.61952C12.1653 5.13728 11.585 3.71398 10.5488 2.65408C9.51266 1.59417 8.10286 0.981818 6.621 0.948M8.268 4.268C8.31412 4.22024 8.3693 4.18215 8.4303 4.15595C8.4913 4.12975 8.55691 4.11595 8.6233 4.11538C8.68969 4.1148 8.75553 4.12745 8.81698 4.15259C8.87843 4.17773 8.93425 4.21486 8.9812 4.2618C9.02814 4.30875 9.06527 4.36457 9.09041 4.42602C9.11555 4.48747 9.1282 4.55331 9.12763 4.6197C9.12705 4.68609 9.11325 4.7517 9.08705 4.8127C9.06085 4.8737 9.02276 4.92888 8.975 4.975L7.33 6.623L8.977 8.27L9.041 8.348C9.10473 8.44415 9.13325 8.55939 9.12173 8.67417C9.11021 8.78895 9.05935 8.89621 8.97778 8.97778C8.89621 9.05935 8.78895 9.11021 8.67417 9.12173C8.55939 9.13325 8.44415 9.10473 8.348 9.041L8.27 8.977L6.623 7.33L4.977 8.977C4.8827 9.06808 4.7564 9.11848 4.6253 9.11734C4.4942 9.1162 4.36879 9.06361 4.27609 8.97091C4.18339 8.87821 4.1308 8.7528 4.12966 8.6217C4.12852 8.4906 4.17892 8.3643 4.27 8.27L5.916 6.623L4.27 4.977L4.205 4.898C4.14082 4.80177 4.11199 4.68627 4.12342 4.57117C4.13485 4.45607 4.18583 4.3485 4.26768 4.26677C4.34952 4.18504 4.45717 4.13421 4.57229 4.12295C4.68741 4.11169 4.80287 4.14068 4.899 4.205L4.977 4.27L6.623 5.916L8.268 4.268Z" fill="#C73D3D"/>
</svg>
