<svg width="49" height="52" viewBox="0 0 49 52" fill="none" xmlns="http://www.w3.org/2000/svg">
<path d="M20.8688 20.8684C26.2172 20.8684 30.553 16.5327 30.553 11.1842C30.553 5.83577 26.2172 1.5 20.8688 1.5C15.5203 1.5 11.1846 5.83577 11.1846 11.1842C11.1846 16.5327 15.5203 20.8684 20.8688 20.8684Z" stroke="#5777B4" stroke-width="3"/>
<path d="M47.5 20.8685H42.6579M42.6579 20.8685H37.8158M42.6579 20.8685V16.0264M42.6579 20.8685V25.7106M40.232 40.2369C40.2352 39.8398 40.2368 39.4363 40.2368 39.0264C40.2368 33.0101 31.5646 28.1316 20.8684 28.1316C10.1722 28.1316 1.5 33.0101 1.5 39.0264C1.5 45.0427 1.5 49.9211 20.8684 49.9211C26.2698 49.9211 30.1653 49.541 32.9737 48.8631" stroke="#5777B4" stroke-width="3" stroke-linecap="round"/>
</svg>
