<svg width="10" height="8" viewBox="0 0 10 8" fill="none" xmlns="http://www.w3.org/2000/svg">
<path d="M1.70503 7.90934C1.41304 7.90934 1.16449 7.83043 0.959404 7.67261C0.754314 7.51479 0.651769 7.3237 0.651769 7.09934V0.887731H0V0.386188H2.60708V0H6.51769V0.386188H9.12477V0.887731H8.473V7.09934C8.473 7.33005 8.37263 7.52281 8.17188 7.67762C7.97114 7.83243 7.72042 7.90967 7.41974 7.90934H1.70503ZM7.82123 0.887731H1.30354V7.09934C1.30354 7.18929 1.34112 7.26318 1.41629 7.32103C1.49146 7.37887 1.58771 7.40779 1.70503 7.40779H7.42039C7.52033 7.40779 7.61223 7.37569 7.69609 7.3115C7.77995 7.2473 7.82166 7.17641 7.82123 7.09884V0.887731ZM3.13371 6.40471H3.78547V1.89082H3.13371V6.40471ZM5.33929 6.40471H5.99106V1.89082H5.33929V6.40471Z" fill="#D4183D"/>
</svg>
