<svg width="15" height="15" viewBox="0 0 15 15" fill="none" xmlns="http://www.w3.org/2000/svg">
<path d="M4.67691 9.96838L5.74367 9.66064L12.1666 3.16074C12.2173 3.10882 12.2455 3.03906 12.2452 2.96652C12.2448 2.89398 12.216 2.82449 12.1648 2.77305L11.7802 2.38414C11.7553 2.3586 11.7256 2.33827 11.6928 2.32433C11.66 2.31039 11.6248 2.30312 11.5891 2.30295C11.5535 2.30278 11.5182 2.30972 11.4852 2.32334C11.4523 2.33697 11.4224 2.35702 11.3973 2.38233L4.99131 8.86527L4.67691 9.96838ZM12.5416 1.61361L12.9263 2.00312C13.4569 2.54043 13.4618 3.40729 12.936 3.93915L6.31734 10.6377L4.03722 11.2944C3.96829 11.3138 3.89622 11.3194 3.82512 11.3109C3.75402 11.3024 3.68529 11.28 3.62285 11.245C3.56041 11.2099 3.50549 11.1629 3.46121 11.1067C3.41694 11.0504 3.38418 10.9859 3.36482 10.917C3.33511 10.8171 3.33469 10.7107 3.36361 10.6105L4.02692 8.28434L10.628 1.60331C10.7535 1.47692 10.9029 1.37679 11.0676 1.30875C11.2322 1.24072 11.4087 1.20615 11.5868 1.20705C11.765 1.20795 11.9411 1.24431 12.105 1.31401C12.269 1.38371 12.4174 1.48595 12.5416 1.61361ZM5.56376 2.31206C5.86422 2.31206 6.10774 2.55861 6.10774 2.8627C6.10822 2.93459 6.09452 3.00586 6.06744 3.07245C6.04035 3.13904 6.00041 3.19964 5.94988 3.25078C5.89936 3.30192 5.83926 3.3426 5.773 3.37049C5.70675 3.39839 5.63565 3.41295 5.56376 3.41335H3.38784C2.78691 3.41335 2.29988 3.90644 2.29988 4.51403V11.1205C2.29988 11.7287 2.78691 12.2218 3.38784 12.2218H9.91561C10.5165 12.2218 11.0042 11.7287 11.0042 11.1205V8.91858C11.0042 8.61448 11.2477 8.36793 11.5482 8.36793C11.8486 8.36793 12.0921 8.61448 12.0921 8.91918V11.1205C12.0921 12.3369 11.1175 13.3231 9.91561 13.3231H3.38784C2.18599 13.3231 1.21191 12.3369 1.21191 11.1205V4.51403C1.21191 3.29825 2.18599 2.31206 3.38784 2.31206H5.56376Z" fill="#273550"/>
</svg>
