<svg width="16" height="16" viewBox="0 0 16 16" fill="none" xmlns="http://www.w3.org/2000/svg">
<path d="M2 4.5C2 3.32149 2 2.73223 2.36612 2.36612C2.73223 2 3.32149 2 4.5 2C5.67851 2 6.26777 2 6.63388 2.36612C7 2.73223 7 3.32149 7 4.5C7 5.67851 7 6.26777 6.63388 6.63388C6.26777 7 5.67851 7 4.5 7C3.32149 7 2.73223 7 2.36612 6.63388C2 6.26777 2 5.67851 2 4.5Z" stroke="#19AD37" stroke-linecap="round" stroke-linejoin="round"/>
<path d="M2 11.5049C2 10.3264 2 9.73712 2.36612 9.371C2.73223 9.00488 3.32149 9.00488 4.5 9.00488C5.67851 9.00488 6.26777 9.00488 6.63388 9.371C7 9.73712 7 10.3264 7 11.5049C7 12.6834 7 13.2726 6.63388 13.6388C6.26777 14.0049 5.67851 14.0049 4.5 14.0049C3.32149 14.0049 2.73223 14.0049 2.36612 13.6388C2 13.2726 2 12.6834 2 11.5049Z" stroke="#19AD37" stroke-linecap="round" stroke-linejoin="round"/>
<path d="M9 4.5C9 3.32149 9 2.73223 9.36612 2.36612C9.73223 2 10.3215 2 11.5 2C12.6785 2 13.2678 2 13.6339 2.36612C14 2.73223 14 3.32149 14 4.5C14 5.67851 14 6.26777 13.6339 6.63388C13.2678 7 12.6785 7 11.5 7C10.3215 7 9.73223 7 9.36612 6.63388C9 6.26777 9 5.67851 9 4.5Z" stroke="#19AD37" stroke-linecap="round" stroke-linejoin="round"/>
<path d="M9 11.5049C9 10.3264 9 9.73712 9.36612 9.371C9.73223 9.00488 10.3215 9.00488 11.5 9.00488C12.6785 9.00488 13.2678 9.00488 13.6339 9.371C14 9.73712 14 10.3264 14 11.5049C14 12.6834 14 13.2726 13.6339 13.6388C13.2678 14.0049 12.6785 14.0049 11.5 14.0049C10.3215 14.0049 9.73223 14.0049 9.36612 13.6388C9 13.2726 9 12.6834 9 11.5049Z" stroke="#19AD37" stroke-linecap="round" stroke-linejoin="round"/>
</svg>
