<svg width="8" height="6" viewBox="0 0 8 6" fill="none" xmlns="http://www.w3.org/2000/svg">
<path d="M2.01772 0.0732231C1.92009 -0.0244079 1.7618 -0.0244079 1.66416 0.0732231L0.0731748 1.66421C-0.0244563 1.76184 -0.0244562 1.92014 0.0731749 2.01777C0.170806 2.1154 0.329097 2.1154 0.426728 2.01777L1.84094 0.603553L3.25516 2.01777C3.35279 2.1154 3.51108 2.1154 3.60871 2.01777C3.70634 1.92014 3.70634 1.76184 3.60871 1.66421L2.01772 0.0732231ZM1.84094 5.25L2.09094 5.25L2.09094 0.25L1.84094 0.25L1.59094 0.25L1.59094 5.25L1.84094 5.25Z" fill="white"/>
<path d="M5.66416 5.42678C5.7618 5.52441 5.92009 5.52441 6.01772 5.42678L7.60871 3.83579C7.70634 3.73816 7.70634 3.57986 7.60871 3.48223C7.51108 3.3846 7.35279 3.3846 7.25516 3.48223L5.84094 4.89645L4.42673 3.48223C4.3291 3.3846 4.17081 3.3846 4.07317 3.48223C3.97554 3.57986 3.97554 3.73816 4.07317 3.83579L5.66416 5.42678ZM5.84094 0.25L5.59094 0.25L5.59094 5.25L5.84094 5.25L6.09094 5.25L6.09094 0.25L5.84094 0.25Z" fill="white"/>
</svg>
