<svg width="40" height="48" viewBox="0 0 40 48" fill="none" xmlns="http://www.w3.org/2000/svg">
<g opacity="0.4">
<path fill-rule="evenodd" clip-rule="evenodd" d="M30.933 17.2452V11.8777C30.933 5.59522 25.838 0.50011 19.5555 0.50011C13.273 0.472722 8.15799 5.54272 8.13049 11.8277V11.8777V17.2452" fill="black" fill-opacity="0.01"/>
<path d="M30.933 17.2452V11.8777C30.933 5.59522 25.838 0.50011 19.5555 0.50011C13.273 0.472722 8.15799 5.54272 8.13049 11.8277V11.8777V17.2452" stroke="black" stroke-linecap="round" stroke-linejoin="round"/>
</g>
<path fill-rule="evenodd" clip-rule="evenodd" d="M29.0825 46.7497H9.98C4.745 46.7497 0.5 42.5072 0.5 37.2697V26.5472C0.5 21.3097 4.745 17.0672 9.98 17.0672H29.0825C34.3175 17.0672 38.5625 21.3097 38.5625 26.5472V37.2697C38.5625 42.5072 34.3175 46.7497 29.0825 46.7497Z" fill="black" fill-opacity="0.01" stroke="black" stroke-linecap="round" stroke-linejoin="round"/>
<path d="M19.5317 29.1325V34.685" stroke="black" stroke-linecap="round" stroke-linejoin="round"/>
</svg>
