<svg width="25" height="25" viewBox="0 0 25 25" fill="none" xmlns="http://www.w3.org/2000/svg">
<path d="M5.1778 19.0291C4.96039 19.0291 4.77815 18.9556 4.63107 18.8085C4.484 18.6613 4.41046 18.479 4.41046 18.2615C4.41046 18.044 4.484 17.8618 4.63107 17.7149C4.77815 17.568 4.96039 17.4945 5.1778 17.4945H6.25996V9.8604C6.25996 8.48444 6.68461 7.26785 7.53393 6.21062C8.38325 5.15339 9.4736 4.47722 10.805 4.1821V3.54462C10.805 3.18937 10.9292 2.88742 11.1776 2.63875C11.4261 2.39006 11.7278 2.26572 12.0827 2.26572C12.4376 2.26572 12.7397 2.39006 12.9889 2.63875C13.2381 2.88742 13.3627 3.18937 13.3627 3.54462V4.1821C14.6941 4.47722 15.7844 5.15339 16.6338 6.21062C17.4831 7.26785 17.9077 8.48444 17.9077 9.8604V17.4945H18.9899C19.2073 17.4945 19.3896 17.5681 19.5366 17.7152C19.6837 17.8623 19.7572 18.0447 19.7572 18.2622C19.7572 18.4797 19.6837 18.6619 19.5366 18.8088C19.3896 18.9557 19.2073 19.0291 18.9899 19.0291H5.1778ZM12.0821 21.9017C11.573 21.9017 11.1378 21.7206 10.7764 21.3585C10.4151 20.9963 10.2344 20.5609 10.2344 20.0523H13.9333C13.9333 20.5625 13.7521 20.9983 13.3895 21.3597C13.027 21.7211 12.5912 21.9017 12.0821 21.9017ZM7.79459 17.4945H16.3731V9.8604C16.3731 8.67593 15.9543 7.66495 15.1168 6.82744C14.2793 5.98991 13.2683 5.57114 12.0839 5.57114C10.8994 5.57114 9.88839 5.98991 9.05088 6.82744C8.21336 7.66495 7.79459 8.67593 7.79459 9.8604V17.4945Z" fill="url(#paint0_linear_89_278)"/>
<defs>
<linearGradient id="paint0_linear_89_278" x1="5.08275" y1="18.7526" x2="12.8716" y2="23.8666" gradientUnits="userSpaceOnUse">
<stop stop-color="#8E01FF"/>
<stop offset="0.255641" stop-color="#4800FF"/>
<stop offset="1" stop-color="#00E5D3"/>
</linearGradient>
</defs>
</svg>
