<svg width="5" height="5" viewBox="0 0 5 5" fill="none" xmlns="http://www.w3.org/2000/svg">
<g clip-path="url(#clip0_3_756)">
<mask id="path-1-inside-1_3_756" fill="white">
<path d="M3.25449 4.4C3.1373 4.51704 2.97845 4.58278 2.81283 4.58278C2.6472 4.58278 2.48835 4.51704 2.37116 4.4L0.635742 2.70833C0.510742 2.59375 0.416992 2.42292 0.416992 2.23958V1.25C0.416992 1.08424 0.48284 0.925269 0.60005 0.808058C0.717261 0.690848 0.876232 0.625 1.04199 0.625H2.03158C2.21491 0.625 2.38574 0.71875 2.50033 0.84375L4.18158 2.58958C4.29862 2.70677 4.36436 2.86562 4.36436 3.03125C4.36436 3.19688 4.29862 3.35573 4.18158 3.47292L3.25449 4.4ZM3.10658 4.25208L4.03366 3.325C4.19616 3.1625 4.19616 2.89792 4.03366 2.73542L2.31491 0.954167C2.24616 0.875 2.14616 0.833333 2.03158 0.833333L1.03574 0.827083C0.806575 0.827083 0.625326 1.02083 0.625326 1.25V2.23958C0.625326 2.35417 0.666992 2.45417 0.746159 2.52292L2.51699 4.25208C2.67949 4.41458 2.94408 4.41458 3.10658 4.25208ZM1.35449 1.04167C1.49263 1.04167 1.6251 1.09654 1.72278 1.19422C1.82045 1.29189 1.87533 1.42437 1.87533 1.5625C1.87533 1.70063 1.82045 1.83311 1.72278 1.93078C1.6251 2.02846 1.49263 2.08333 1.35449 2.08333C1.21636 2.08333 1.08388 2.02846 0.986207 1.93078C0.888532 1.83311 0.833659 1.70063 0.833659 1.5625C0.833659 1.42437 0.888532 1.29189 0.986207 1.19422C1.08388 1.09654 1.21636 1.04167 1.35449 1.04167ZM1.35449 1.25C1.27161 1.25 1.19213 1.28292 1.13352 1.34153C1.07492 1.40013 1.04199 1.47962 1.04199 1.5625C1.04199 1.64538 1.07492 1.72487 1.13352 1.78347C1.19213 1.84208 1.27161 1.875 1.35449 1.875C1.43737 1.875 1.51686 1.84208 1.57546 1.78347C1.63407 1.72487 1.66699 1.64538 1.66699 1.5625C1.66699 1.47962 1.63407 1.40013 1.57546 1.34153C1.51686 1.28292 1.43737 1.25 1.35449 1.25Z"/>
</mask>
<path d="M3.25449 4.4C3.1373 4.51704 2.97845 4.58278 2.81283 4.58278C2.6472 4.58278 2.48835 4.51704 2.37116 4.4L0.635742 2.70833C0.510742 2.59375 0.416992 2.42292 0.416992 2.23958V1.25C0.416992 1.08424 0.48284 0.925269 0.60005 0.808058C0.717261 0.690848 0.876232 0.625 1.04199 0.625H2.03158C2.21491 0.625 2.38574 0.71875 2.50033 0.84375L4.18158 2.58958C4.29862 2.70677 4.36436 2.86562 4.36436 3.03125C4.36436 3.19688 4.29862 3.35573 4.18158 3.47292L3.25449 4.4ZM3.10658 4.25208L4.03366 3.325C4.19616 3.1625 4.19616 2.89792 4.03366 2.73542L2.31491 0.954167C2.24616 0.875 2.14616 0.833333 2.03158 0.833333L1.03574 0.827083C0.806575 0.827083 0.625326 1.02083 0.625326 1.25V2.23958C0.625326 2.35417 0.666992 2.45417 0.746159 2.52292L2.51699 4.25208C2.67949 4.41458 2.94408 4.41458 3.10658 4.25208ZM1.35449 1.04167C1.49263 1.04167 1.6251 1.09654 1.72278 1.19422C1.82045 1.29189 1.87533 1.42437 1.87533 1.5625C1.87533 1.70063 1.82045 1.83311 1.72278 1.93078C1.6251 2.02846 1.49263 2.08333 1.35449 2.08333C1.21636 2.08333 1.08388 2.02846 0.986207 1.93078C0.888532 1.83311 0.833659 1.70063 0.833659 1.5625C0.833659 1.42437 0.888532 1.29189 0.986207 1.19422C1.08388 1.09654 1.21636 1.04167 1.35449 1.04167ZM1.35449 1.25C1.27161 1.25 1.19213 1.28292 1.13352 1.34153C1.07492 1.40013 1.04199 1.47962 1.04199 1.5625C1.04199 1.64538 1.07492 1.72487 1.13352 1.78347C1.19213 1.84208 1.27161 1.875 1.35449 1.875C1.43737 1.875 1.51686 1.84208 1.57546 1.78347C1.63407 1.72487 1.66699 1.64538 1.66699 1.5625C1.66699 1.47962 1.63407 1.40013 1.57546 1.34153C1.51686 1.28292 1.43737 1.25 1.35449 1.25Z" fill="#273550"/>
<path d="M3.25449 4.4L3.96116 5.10755L3.9616 5.10711L3.25449 4.4ZM2.37116 4.4L3.07788 3.6924L3.06918 3.68393L2.37116 4.4ZM0.635742 2.70833L1.33377 1.99226L1.32278 1.98155L1.31147 1.97118L0.635742 2.70833ZM0.416992 1.25H-0.583008H0.416992ZM1.04199 0.625V-0.375V0.625ZM2.50033 0.84375L1.76317 1.51947L1.77149 1.52855L1.78002 1.53741L2.50033 0.84375ZM4.18158 2.58958L3.46127 3.28324L3.46759 3.2898L3.47403 3.29625L4.18158 2.58958ZM4.18158 3.47292L4.88868 4.18002L4.88912 4.17958L4.18158 3.47292ZM3.10658 4.25208L2.39947 3.54498H2.39947L3.10658 4.25208ZM4.03366 3.325L4.74077 4.03211L4.03366 3.325ZM4.03366 2.73542L3.31404 3.42979L3.32024 3.43621L3.32655 3.44252L4.03366 2.73542ZM2.31491 0.954167L1.55988 1.60985L1.57708 1.62966L1.59529 1.64854L2.31491 0.954167ZM2.03158 0.833333L2.0253 1.83333H2.03158V0.833333ZM1.03574 0.827083L1.04202 -0.172917H1.03574V0.827083ZM0.746159 2.52292L1.4448 1.80744L1.4239 1.78704L1.40185 1.76788L0.746159 2.52292ZM2.51699 4.25208L3.22415 3.54493L3.21563 3.53661L2.51699 4.25208ZM1.35449 1.04167V0.0416667V1.04167ZM0.833659 1.5625H-0.166341H0.833659ZM1.35449 1.875V2.875V1.875ZM3.25449 4.4L2.54783 3.69245C2.61814 3.62223 2.71345 3.58278 2.81283 3.58278V4.58278V5.58278C3.24345 5.58278 3.65647 5.41186 3.96116 5.10755L3.25449 4.4ZM2.81283 4.58278V3.58278C2.9122 3.58278 3.00751 3.62223 3.07783 3.69245L2.37116 4.4L1.66449 5.10755C1.96918 5.41186 2.3822 5.58278 2.81283 5.58278V4.58278ZM2.37116 4.4L3.06918 3.68393L1.33377 1.99226L0.635742 2.70833L-0.0622809 3.42441L1.67314 5.11608L2.37116 4.4ZM0.635742 2.70833L1.31147 1.97118C1.33712 1.99469 1.3597 2.02334 1.37798 2.06074C1.39679 2.09925 1.41699 2.16001 1.41699 2.23958H0.416992H-0.583008C-0.583008 2.75891 -0.326648 3.18271 -0.0399824 3.44549L0.635742 2.70833ZM0.416992 2.23958H1.41699V1.25H0.416992H-0.583008V2.23958H0.416992ZM0.416992 1.25L1.41699 1.25C1.41699 1.34946 1.37748 1.44484 1.30716 1.51517L0.60005 0.808058L-0.107056 0.100951C-0.411803 0.405698 -0.583008 0.819023 -0.583008 1.25H0.416992ZM0.60005 0.808058L1.30716 1.51517C1.23683 1.58549 1.14145 1.625 1.04199 1.625L1.04199 0.625V-0.375C0.611015 -0.375 0.19769 -0.203795 -0.107056 0.100951L0.60005 0.808058ZM1.04199 0.625V1.625H2.03158V0.625V-0.375H1.04199V0.625ZM2.03158 0.625V1.625C1.95201 1.625 1.89124 1.6048 1.85273 1.58599C1.81533 1.56771 1.78668 1.54512 1.76317 1.51947L2.50033 0.84375L3.23748 0.168025C2.9747 -0.11864 2.5509 -0.375 2.03158 -0.375V0.625ZM2.50033 0.84375L1.78002 1.53741L3.46127 3.28324L4.18158 2.58958L4.90188 1.89593L3.22063 0.150092L2.50033 0.84375ZM4.18158 2.58958L3.47403 3.29625C3.4038 3.22594 3.36436 3.13063 3.36436 3.03125H4.36436H5.36436C5.36436 2.60062 5.19343 2.1876 4.88912 1.88292L4.18158 2.58958ZM4.36436 3.03125H3.36436C3.36436 2.93187 3.4038 2.83656 3.47403 2.76625L4.18158 3.47292L4.88912 4.17958C5.19343 3.8749 5.36436 3.46188 5.36436 3.03125H4.36436ZM4.18158 3.47292L3.47447 2.76581L2.54739 3.69289L3.25449 4.4L3.9616 5.10711L4.88868 4.18002L4.18158 3.47292ZM3.10658 4.25208L3.81368 4.95919L4.74077 4.03211L4.03366 3.325L3.32655 2.61789L2.39947 3.54498L3.10658 4.25208ZM4.03366 3.325L4.74077 4.03211C5.29379 3.47908 5.29379 2.58133 4.74077 2.02831L4.03366 2.73542L3.32655 3.44252C3.09853 3.2145 3.09853 2.84592 3.32655 2.61789L4.03366 3.325ZM4.03366 2.73542L4.75328 2.04105L3.03453 0.259797L2.31491 0.954167L1.59529 1.64854L3.31404 3.42979L4.03366 2.73542ZM2.31491 0.954167L3.06994 0.29848C2.78618 -0.0282798 2.39524 -0.166667 2.03158 -0.166667V0.833333V1.83333C1.89707 1.83333 1.70614 1.77828 1.55988 1.60985L2.31491 0.954167ZM2.03158 0.833333L2.03785 -0.166647L1.04202 -0.172897L1.03574 0.827083L1.02947 1.82706L2.0253 1.83331L2.03158 0.833333ZM1.03574 0.827083V-0.172917C0.21569 -0.172917 -0.374674 0.507957 -0.374674 1.25H0.625326H1.62533C1.62533 1.53371 1.39746 1.82708 1.03574 1.82708V0.827083ZM0.625326 1.25H-0.374674V2.23958H0.625326H1.62533V1.25H0.625326ZM0.625326 2.23958H-0.374674C-0.374674 2.60325 -0.236288 2.99418 0.0904722 3.27795L0.746159 2.52292L1.40185 1.76788C1.57027 1.91415 1.62533 2.10508 1.62533 2.23958H0.625326ZM0.746159 2.52292L0.0475195 3.23839L1.81835 4.96756L2.51699 4.25208L3.21563 3.53661L1.4448 1.80744L0.746159 2.52292ZM2.51699 4.25208L1.80989 4.95919C2.36291 5.51221 3.26066 5.51221 3.81368 4.95919L3.10658 4.25208L2.39947 3.54498C2.62749 3.31695 2.99607 3.31695 3.2241 3.54498L2.51699 4.25208ZM1.35449 1.04167V2.04167C1.22741 2.04167 1.10553 1.99118 1.01567 1.90132L1.72278 1.19422L2.42988 0.487108C2.14467 0.201897 1.75784 0.0416667 1.35449 0.0416667V1.04167ZM1.72278 1.19422L1.01567 1.90132C0.925809 1.81146 0.875326 1.68958 0.875326 1.5625H1.87533H2.87533C2.87533 1.15915 2.7151 0.77232 2.42988 0.487108L1.72278 1.19422ZM1.87533 1.5625H0.875326C0.875326 1.43542 0.925809 1.31354 1.01567 1.22368L1.72278 1.93078L2.42988 2.63789C2.7151 2.35268 2.87533 1.96585 2.87533 1.5625H1.87533ZM1.72278 1.93078L1.01567 1.22368C1.10553 1.13382 1.22741 1.08333 1.35449 1.08333V2.08333V3.08333C1.75784 3.08333 2.14467 2.9231 2.42988 2.63789L1.72278 1.93078ZM1.35449 2.08333V1.08333C1.48158 1.08333 1.60345 1.13382 1.69331 1.22368L0.986207 1.93078L0.279101 2.63789C0.564312 2.9231 0.951142 3.08333 1.35449 3.08333V2.08333ZM0.986207 1.93078L1.69331 1.22368C1.78318 1.31354 1.83366 1.43542 1.83366 1.5625H0.833659H-0.166341C-0.166341 1.96585 -0.00611094 2.35268 0.279101 2.63789L0.986207 1.93078ZM0.833659 1.5625H1.83366C1.83366 1.68958 1.78318 1.81146 1.69331 1.90132L0.986207 1.19422L0.279101 0.487108C-0.00611094 0.77232 -0.166341 1.15915 -0.166341 1.5625H0.833659ZM0.986207 1.19422L1.69331 1.90132C1.60345 1.99118 1.48158 2.04167 1.35449 2.04167V1.04167V0.0416667C0.951142 0.0416667 0.564312 0.201897 0.279101 0.487108L0.986207 1.19422ZM1.35449 1.25V0.25C1.0064 0.25 0.672556 0.388281 0.426415 0.634422L1.13352 1.34153L1.84063 2.04864C1.7117 2.17757 1.53683 2.25 1.35449 2.25V1.25ZM1.13352 1.34153L0.426415 0.634422C0.180273 0.880564 0.0419922 1.2144 0.0419922 1.5625H1.04199H2.04199C2.04199 1.74484 1.96956 1.9197 1.84063 2.04864L1.13352 1.34153ZM1.04199 1.5625H0.0419922C0.0419922 1.9106 0.180273 2.24444 0.426415 2.49058L1.13352 1.78347L1.84063 1.07636C1.96956 1.2053 2.04199 1.38016 2.04199 1.5625H1.04199ZM1.13352 1.78347L0.426415 2.49058C0.672556 2.73672 1.0064 2.875 1.35449 2.875V1.875V0.875C1.53683 0.875 1.7117 0.947433 1.84063 1.07636L1.13352 1.78347ZM1.35449 1.875V2.875C1.70259 2.875 2.03643 2.73672 2.28257 2.49058L1.57546 1.78347L0.868356 1.07636C0.997288 0.947433 1.17216 0.875 1.35449 0.875V1.875ZM1.57546 1.78347L2.28257 2.49058C2.52871 2.24444 2.66699 1.9106 2.66699 1.5625H1.66699H0.666992C0.666992 1.38016 0.739425 1.2053 0.868356 1.07636L1.57546 1.78347ZM1.66699 1.5625H2.66699C2.66699 1.2144 2.52871 0.880564 2.28257 0.634422L1.57546 1.34153L0.868356 2.04864C0.739425 1.9197 0.666992 1.74484 0.666992 1.5625H1.66699ZM1.57546 1.34153L2.28257 0.634422C2.03643 0.388281 1.70259 0.25 1.35449 0.25V1.25V2.25C1.17216 2.25 0.997288 2.17757 0.868356 2.04864L1.57546 1.34153Z" fill="black" mask="url(#path-1-inside-1_3_756)"/>
</g>
<defs>
<clipPath id="clip0_3_756">
<rect width="5" height="5" fill="white"/>
</clipPath>
</defs>
</svg>
