<svg width="12" height="14" viewBox="0 0 12 14" fill="none" xmlns="http://www.w3.org/2000/svg">
<path d="M3.25 10.2501H8.75M3.25 7.65012H6M6.6875 0.825122V1.15012C6.6875 2.98832 6.6875 3.90807 7.29181 4.47877C7.89544 5.05012 8.86825 5.05012 10.8125 5.05012H11.1562M11.5 6.12717V8.30012C11.5 10.7513 11.5 11.9772 10.6942 12.7383C9.8885 13.4995 8.59256 13.5001 6 13.5001C3.40744 13.5001 2.11081 13.5001 1.30575 12.7383C0.500687 11.9765 0.5 10.7513 0.5 8.30012V5.34652C0.5 3.23727 0.5 2.18232 1.10913 1.46797C1.23215 1.32373 1.37112 1.19233 1.52369 1.07602C2.28062 0.500122 3.39506 0.500122 5.626 0.500122C6.11069 0.500122 6.35337 0.500122 6.57544 0.574222C6.62127 0.589822 6.66642 0.607589 6.71088 0.627522C6.924 0.723722 7.09519 0.885572 7.43825 1.20992L10.6942 4.28832C11.0923 4.66402 11.2903 4.85252 11.3955 5.09107C11.5 5.33027 11.5 5.59547 11.5 6.12717Z" stroke="#26344F" stroke-linecap="round" stroke-linejoin="round"/>
</svg>
