<svg width="16" height="16" viewBox="0 0 16 16" fill="none" xmlns="http://www.w3.org/2000/svg">
<path d="M11.9999 4.66667H10.5266C10.398 4.18126 10.1711 3.72744 9.8599 3.33333H11.9999C12.1767 3.33333 12.3463 3.2631 12.4713 3.13807C12.5963 3.01305 12.6666 2.84348 12.6666 2.66667C12.6666 2.48986 12.5963 2.32029 12.4713 2.19526C12.3463 2.07024 12.1767 2 11.9999 2H4.66657C4.48976 2 4.32019 2.07024 4.19517 2.19526C4.07014 2.32029 3.9999 2.48986 3.9999 2.66667C3.9999 2.84348 4.07014 3.01305 4.19517 3.13807C4.32019 3.2631 4.48976 3.33333 4.66657 3.33333H6.9999C7.44006 3.33488 7.87081 3.46089 8.2424 3.69682C8.61399 3.93275 8.91127 4.26898 9.0999 4.66667H4.66657C4.48976 4.66667 4.32019 4.7369 4.19517 4.86193C4.07014 4.98695 3.9999 5.15652 3.9999 5.33333C3.9999 5.51014 4.07014 5.67971 4.19517 5.80474C4.32019 5.92976 4.48976 6 4.66657 6H9.33324C9.25332 6.55373 8.9771 7.06032 8.55492 7.42743C8.13274 7.79454 7.5927 7.99775 7.03324 8H4.66657C4.63554 7.99688 4.60427 7.99688 4.57324 8C4.52902 7.99362 4.48412 7.99362 4.4399 8C4.3945 8.01558 4.35178 8.03806 4.31324 8.06667L4.23324 8.11333C4.19705 8.14663 4.16564 8.18477 4.1399 8.22667C4.11734 8.25606 4.09728 8.28727 4.0799 8.32C4.07387 8.35977 4.07387 8.40023 4.0799 8.44C4.0324 8.5065 4.00466 8.58508 3.9999 8.66667C3.99678 8.6977 3.99678 8.72897 3.9999 8.76C3.99352 8.80421 3.99352 8.84912 3.9999 8.89333C4.01548 8.93873 4.03797 8.98146 4.06657 9.02C4.06657 9.02 4.06657 9.07333 4.11324 9.1L8.11324 13.7667C8.22816 13.901 8.39177 13.9843 8.56805 13.998C8.74433 14.0118 8.91886 13.9549 9.05324 13.84C9.18761 13.7251 9.27083 13.5615 9.28458 13.3852C9.29834 13.2089 9.2415 13.0344 9.12657 12.9L6.1199 9.33333H6.9999C7.91727 9.33713 8.80274 8.99691 9.48155 8.37981C10.1604 7.76272 10.5832 6.91358 10.6666 6H11.9999C12.1767 6 12.3463 5.92976 12.4713 5.80474C12.5963 5.67971 12.6666 5.51014 12.6666 5.33333C12.6666 5.15652 12.5963 4.98695 12.4713 4.86193C12.3463 4.7369 12.1767 4.66667 11.9999 4.66667Z" fill="white"/>
</svg>
