<svg width="30" height="30" viewBox="0 0 30 30" fill="none" xmlns="http://www.w3.org/2000/svg">
<path d="M26.3198 15H23.8198C23.4883 15 23.1704 15.1317 22.9359 15.3661C22.7015 15.6005 22.5698 15.9185 22.5698 16.25C22.5698 16.5815 22.7015 16.8994 22.9359 17.1339C23.1704 17.3683 23.4883 17.5 23.8198 17.5V20H22.3373C22.485 19.5995 22.5632 19.1768 22.5686 18.75C22.5685 17.9245 22.2961 17.1221 21.7936 16.4672C21.2911 15.8123 20.5865 15.3416 19.7892 15.1279C18.9918 14.9143 18.1463 14.9697 17.3836 15.2856C16.621 15.6014 15.9838 16.1601 15.5711 16.875C15.4877 17.0172 15.4333 17.1745 15.411 17.3378C15.3886 17.5011 15.3988 17.6673 15.441 17.8267C15.4831 17.986 15.5563 18.1355 15.6565 18.2664C15.7566 18.3974 15.8817 18.5073 16.0244 18.5897C16.1672 18.6721 16.3248 18.7255 16.4883 18.7467C16.6518 18.768 16.8179 18.7567 16.9769 18.7135C17.136 18.6703 17.285 18.5961 17.4153 18.4951C17.5456 18.3941 17.6546 18.2683 17.7361 18.125C17.8458 17.935 18.0036 17.7772 18.1936 17.6675C18.3836 17.5577 18.5992 17.5 18.8186 17.5C19.1501 17.5 19.468 17.6317 19.7025 17.8661C19.9369 18.1005 20.0686 18.4185 20.0686 18.75C20.0686 19.0815 19.9369 19.3994 19.7025 19.6339C19.468 19.8683 19.1501 20 18.8186 20C18.4871 20 18.1691 20.1317 17.9347 20.3661C17.7003 20.6005 17.5686 20.9185 17.5686 21.25C17.5686 21.5815 17.7003 21.8994 17.9347 22.1339C18.1691 22.3683 18.4871 22.5 18.8186 22.5C19.1501 22.5 19.468 22.6317 19.7025 22.8661C19.9369 23.1005 20.0686 23.4185 20.0686 23.75C20.0686 24.0815 19.9369 24.3994 19.7025 24.6339C19.468 24.8683 19.1501 25 18.8186 25C18.5992 25 18.3836 24.9422 18.1936 24.8325C18.0036 24.7228 17.8458 24.565 17.7361 24.375C17.6546 24.2317 17.5456 24.1059 17.4153 24.0049C17.285 23.9039 17.136 23.8297 16.9769 23.7865C16.8179 23.7433 16.6518 23.732 16.4883 23.7532C16.3248 23.7745 16.1672 23.8278 16.0244 23.9103C15.8817 23.9927 15.7566 24.1026 15.6565 24.2335C15.5563 24.3645 15.4831 24.5139 15.441 24.6733C15.3988 24.8327 15.3886 24.9988 15.411 25.1621C15.4333 25.3255 15.4877 25.4828 15.5711 25.625C15.9838 26.3398 16.621 26.8985 17.3836 27.2144C18.1463 27.5303 18.9918 27.5857 19.7892 27.372C20.5865 27.1584 21.2911 26.6876 21.7936 26.0327C22.2961 25.3778 22.5685 24.5755 22.5686 23.75C22.5632 23.3232 22.485 22.9004 22.3373 22.5H23.8186V26.25C23.8186 26.5815 23.9503 26.8994 24.1847 27.1339C24.4191 27.3683 24.7371 27.5 25.0686 27.5C25.4001 27.5 25.718 27.3683 25.9525 27.1339C26.1869 26.8994 26.3186 26.5815 26.3186 26.25V17.5C26.6501 17.5 26.968 17.3683 27.2025 17.1339C27.4369 16.8994 27.5686 16.5815 27.5686 16.25C27.5686 15.9185 27.4369 15.6005 27.2025 15.3661C26.968 15.1317 26.6513 15 26.3198 15ZM11.3561 14.0537C11.395 14.214 11.4653 14.3649 11.5628 14.4979C11.6603 14.6309 11.7832 14.7432 11.9243 14.8285C12.0655 14.9138 12.2221 14.9703 12.3852 14.9948C12.5482 15.0193 12.7145 15.0112 12.8745 14.9712C13.0345 14.9311 13.1849 14.8598 13.3172 14.7613C13.4495 14.6628 13.5609 14.5391 13.6452 14.3974C13.7295 14.2557 13.7849 14.0986 13.8082 13.9354C13.8315 13.7721 13.8223 13.6059 13.7811 13.4462L11.5848 4.65873C11.4312 4.04146 11.0755 3.49333 10.5743 3.1016C10.0731 2.70987 9.4553 2.49707 8.8192 2.49707C8.1831 2.49707 7.56528 2.70987 7.06411 3.1016C6.56293 3.49333 6.20721 4.04146 6.05358 4.65873L3.85608 13.4462C3.81486 13.6059 3.80565 13.7721 3.82897 13.9354C3.85228 14.0986 3.90767 14.2557 3.99194 14.3974C4.07621 14.5391 4.18769 14.6628 4.31996 14.7613C4.45224 14.8598 4.60269 14.9311 4.76265 14.9712C4.92261 15.0112 5.08892 15.0193 5.25199 14.9948C5.41507 14.9703 5.57169 14.9138 5.71283 14.8285C5.85397 14.7432 5.97684 14.6309 6.07437 14.4979C6.1719 14.3649 6.24215 14.214 6.28108 14.0537L6.98108 11.25H10.6561L11.3561 14.0537ZM7.60733 8.74998L8.47858 5.26623C8.50485 5.19699 8.55157 5.13738 8.61252 5.09532C8.67347 5.05326 8.74577 5.03074 8.81983 5.03074C8.89388 5.03074 8.96618 5.05326 9.02713 5.09532C9.08808 5.13738 9.1348 5.19699 9.16108 5.26623L10.0323 8.74998H7.60733ZM17.5698 8.74998H18.8198C19.1513 8.74998 19.4693 8.88167 19.7037 9.11609C19.9381 9.35051 20.0698 9.66845 20.0698 9.99998V11.25C20.0698 11.5815 20.2015 11.8994 20.4359 12.1339C20.6704 12.3683 20.9883 12.5 21.3198 12.5C21.6513 12.5 21.9693 12.3683 22.2037 12.1339C22.4381 11.8994 22.5698 11.5815 22.5698 11.25V9.99998C22.5688 9.00572 22.1734 8.05247 21.4704 7.34942C20.7673 6.64638 19.8141 6.25097 18.8198 6.24998H17.5698C17.2383 6.24998 16.9204 6.38167 16.6859 6.61609C16.4515 6.85051 16.3198 7.16845 16.3198 7.49998C16.3198 7.8315 16.4515 8.14944 16.6859 8.38386C16.9204 8.61828 17.2383 8.74998 17.5698 8.74998ZM12.5698 20H11.3198C10.9883 20 10.6704 19.8683 10.4359 19.6339C10.2015 19.3994 10.0698 19.0815 10.0698 18.75V17.5C10.0698 17.1685 9.93813 16.8505 9.70371 16.6161C9.46929 16.3817 9.15135 16.25 8.81983 16.25C8.48831 16.25 8.17036 16.3817 7.93594 16.6161C7.70152 16.8505 7.56983 17.1685 7.56983 17.5V18.75C7.57082 19.7442 7.96623 20.6975 8.66927 21.4005C9.37232 22.1036 10.3256 22.499 11.3198 22.5H12.5698C12.9013 22.5 13.2193 22.3683 13.4537 22.1339C13.6881 21.8994 13.8198 21.5815 13.8198 21.25C13.8198 20.9185 13.6881 20.6005 13.4537 20.3661C13.2193 20.1317 12.9013 20 12.5698 20Z" fill="white"/>
</svg>
