<svg width="3" height="16" viewBox="0 0 3 16" fill="none" xmlns="http://www.w3.org/2000/svg">
<path d="M1.5 9.375C1.20333 9.375 0.913318 9.28703 0.666644 9.1222C0.41997 8.95738 0.227712 8.72312 0.114181 8.44903C0.000649214 8.17494 -0.0290558 7.87334 0.0288219 7.58237C0.0866997 7.29139 0.229561 7.02412 0.43934 6.81434C0.649119 6.60456 0.916393 6.4617 1.20736 6.40382C1.49834 6.34594 1.79994 6.37565 2.07402 6.48918C2.34811 6.60271 2.58238 6.79497 2.7472 7.04165C2.91203 7.28832 3 7.57833 3 7.875C3 8.27283 2.84196 8.65436 2.56066 8.93566C2.27936 9.21696 1.89782 9.375 1.5 9.375ZM3 1.5C3 1.20333 2.91203 0.913319 2.7472 0.666646C2.58238 0.419972 2.34811 0.227713 2.07402 0.114181C1.79994 0.000649922 1.49834 -0.0290551 1.20736 0.0288228C0.916393 0.0867006 0.649119 0.229562 0.43934 0.439341C0.229561 0.649119 0.0866997 0.916394 0.0288219 1.20737C-0.0290558 1.49834 0.000649214 1.79994 0.114181 2.07403C0.227712 2.34811 0.41997 2.58238 0.666644 2.74721C0.913318 2.91203 1.20333 3 1.5 3C1.89782 3 2.27936 2.84197 2.56066 2.56066C2.84196 2.27936 3 1.89783 3 1.5ZM3 14.25C3 13.9533 2.91203 13.6633 2.7472 13.4166C2.58238 13.17 2.34811 12.9777 2.07402 12.8642C1.79994 12.7507 1.49834 12.7209 1.20736 12.7788C0.916393 12.8367 0.649119 12.9796 0.43934 13.1893C0.229561 13.3991 0.0866997 13.6664 0.0288219 13.9574C-0.0290558 14.2483 0.000649214 14.5499 0.114181 14.824C0.227712 15.0981 0.41997 15.3324 0.666644 15.4972C0.913318 15.662 1.20333 15.75 1.5 15.75C1.89782 15.75 2.27936 15.592 2.56066 15.3107C2.84196 15.0294 3 14.6478 3 14.25Z" fill="black"/>
</svg>
